#!OML:ASF E:/inclinewalkrobotboard/Project1/Captureday1/Session1/subject1.ASF
:FULLY-SPECIFIED
:DEGREES
26
root 0 0 0 -0.5051415636638287 -2.034899827843314 -4.2410274778546375
lowerback 15.29269838507301 1.689199656848199 0.38188694030710413
upperback 0.24870253461192177 2.3180909321360756 0.19567216588857717
thorax -8.308446534498994 1.093457042204123 -0.47065539645034116
lowerneck -8.557385230276964 -3.803408247858492 0.4163213719838975
upperneck -1.992557548785939 -5.264167252812563 2.8890966897250343
head 0.804836057976404 -2.536169628087888 0.61350949748717
rclavicle -3.679231734735425E-16 -1.2021540336795614E-16
rhumerus 6.931398281804295 -1.8114171244622677 -44.272842973824176
rradius 108.36039057653304
rwrist -26.141746576792563
rhand -12.316897732089721 -30.50149481297979
rfingers 7.1250199999999415
rthumb 13.799433756655443 -60.03384587988988
lclavicle -2.0923009751288122E-16 -4.909374246615419E-16
lhumerus -42.997938044295324 -0.13580850569661504 83.15225429306585
lradius 44.30789187850405
lwrist 1.8375401773190552
lhand -15.998755379135249 -10.805370021327139
lfingers 7.125019999999926
lthumb 10.198542658455679 18.190388450402843
rfemur -2.7673343240058283 1.0254498114413695 5.529775331787681
rtibia 8.327274057444422
rfoot -1.5470654449704635 -1.347870416125808
rtoes 0.7963768731156877
lfemur -6.472911754832678 -3.6204277763214154 -12.147070354249925
ltibia 27.27321760061349
lfoot -19.44985228394102 8.128243196206723
ltoes -43.74765068716399
27
root 0 0 0 -0.5411099638454079 -2.0389916343036902 -4.160474216179827
lowerback 15.578431724133637 1.6028589572890475 0.2920361717486021
upperback 0.2811698420131221 2.192996540635975 0.21290727390322206
thorax -8.439898699986317 1.032158889246218 -0.39144628168622575
lowerneck -8.576564489895917 -3.760546234530376 0.5090004883769023
upperneck -2.8462768795493716 -5.14787127575752 2.69602786209746
head 0.5329860393186578 -2.506797232030996 0.5517382107922084
rclavicle -3.91302949257668E-16 -8.965041577660416E-17
rhumerus 8.910627420183388 -1.5078044547182738 -42.59483922194586
rradius 111.45546939937176
rwrist -27.494620193126966
rhand -12.324747460567366 -31.525598147884853
rfingers 7.125019999999942
rthumb 13.792991144856174 -61.05082682723756
lclavicle -2.667656483410901E-16 -5.234510223695588E-16
lhumerus -42.91120273142769 -0.22268555376404983 83.0729818710791
lradius 44.31852733005553
lwrist 2.030379726943001
lhand -16.14043597532505 -10.36466681513688
lfingers 7.125019999999922
lthumb 10.045999745676202 18.599481464663675
rfemur -2.846034994030888 1.0550621993069542 5.684964893551019
rtibia 8.556932228356603
rfoot -1.5900868140848723 -1.3867470700251308
rtoes 0.8203541365034073
lfemur -6.521628974159461 -3.577733359602624 -12.265547077636578
ltibia 27.39659249260906
lfoot -19.23079391085302 7.93610274147939
ltoes -43.13062866162073
28
root 0 0 0 -0.5543654828406576 -2.0399831905918258 -4.1250173284155
lowerback 15.693288921540475 1.565465685442756 0.25506908330016476
upperback 0.3074909666060858 2.1385707320101472 0.22271388105216838
thorax -8.480039451612896 1.005832554642351 -0.3552902165370929
lowerneck -8.568320424617317 -3.7400450390904236 0.5464913662438159
upperneck -3.1507195976810785 -5.095555400894847 2.6165512589994027
head 0.4327592541780332 -2.4927523875481477 0.5265309888337587
rclavicle -4.029660627535415E-16 -7.389271100119476E-17
rhumerus 9.763046750739687 -1.3227492430498984 -41.85593801038665
rradius 112.87119459939338
rwrist -28.117059260144867
rhand -12.303950552852182 -32.08848945790849
rfingers 7.125019999999944
rthumb 13.812620247724222 -61.60802200161835
lclavicle -2.9663230836814683E-16 -5.379264012432492E-16
lhumerus -42.867292457376976 -0.26616392710754855 83.03752341320326
lradius 44.32513634130132
lwrist 2.1232170419951037
lhand -16.20821986491244 -10.155272241477169
lfingers 7.12501999999992
lthumb 9.972976130053244 18.798213055460373
rfemur -2.9271873652826894 1.086520677043103 5.849149824208359
rtibia 8.79554034216113
rfoot -1.6392411281002142 -1.428022915722161
rtoes 0.8444591900631497
lfemur -6.5462822455689444 -3.556720801220977 -12.320444450223787
ltibia 27.45737559456982
lfoot -19.127319720728924 7.845794600263151
ltoes -42.843172667390114
29
root 0 0 0 -0.5600899864848176 -2.0377075332350647 -4.110250085823035
lowerback 15.723745514827893 1.5588525446438066 0.24665266339808656
upperback 0.34064360160879464 2.1287025189938618 0.22857687374258584
thorax -8.464061952768663 1.0014413373144713 -0.3427063936887661
lowerneck -8.549392964816805 -3.739767211865777 0.5414457719650504
upperneck -3.118111335836442 -5.089326440361156 2.6089870806549484
head 0.4406425714458333 -2.491631231144671 0.5247252554955462
rclavicle -4.089523028167492E-16 -6.12595790927614E-17
rhumerus 10.396137750302643 -1.1541748657163042 -41.2994531519706
rradius 113.96769996218444
rwrist -28.60205604455513
rhand -12.275605483479985 -32.57323591351964
rfingers 7.125019999999946
rthumb 13.839706411866288 -62.08560755123564
lclavicle -3.238530170591283E-16 -5.469033747094161E-16
lhumerus -42.825245167763434 -0.29891528144340573 83.01414988340719
lradius 44.31885917522404
lwrist 2.1923221764822793
lhand -16.264668430089607 -9.982615942731798
lfingers 7.125019999999918
lthumb 9.91335611783511 18.965593746160174
rfemur -3.0102673950328276 1.1197202715601284 6.020815030381624
rtibia 9.039972332357927
rfoot -1.691335741721546 -1.470722504351094
rtoes 0.8697306938934677
lfemur -6.5624576328499185 -3.5432680512206325 -12.3527611749448
ltibia 27.496100398738847
lfoot -19.065262952296354 7.792140808323554
ltoes -42.67389168021297
